<mxfile host="65bd71144e">
    <diagram id="7W33uEh9ZzW-GppHaLwA" name="Page-1">
        <mxGraphModel dx="596" dy="699" grid="1" gridSize="10" guides="1" tooltips="1" connect="1" arrows="1" fold="1" page="1" pageScale="1" pageWidth="850" pageHeight="1100" math="0" shadow="0">
            <root>
                <mxCell id="0"/>
                <mxCell id="1" parent="0"/>
                <mxCell id="2" value="&amp;nbsp;Host device" style="rounded=0;whiteSpace=wrap;html=1;align=left;verticalAlign=top;fillColor=#CCCCFF;fontColor=#000000;" parent="1" vertex="1">
                    <mxGeometry x="60" y="220" width="350" height="200" as="geometry"/>
                </mxCell>
                <mxCell id="8" value="wrmt-over-at" style="rounded=0;whiteSpace=wrap;html=1;align=center;verticalAlign=top;fillColor=#9999FF;fontColor=#000000;" parent="1" vertex="1">
                    <mxGeometry x="250" y="260" width="140" height="130" as="geometry"/>
                </mxCell>
                <mxCell id="3" value="Application" style="rounded=0;whiteSpace=wrap;html=1;" parent="1" vertex="1">
                    <mxGeometry x="80" y="260" width="120" height="50" as="geometry"/>
                </mxCell>
                <mxCell id="4" value="TCP/IP" style="rounded=0;whiteSpace=wrap;html=1;" parent="1" vertex="1">
                    <mxGeometry x="80" y="340" width="120" height="50" as="geometry"/>
                </mxCell>
                <mxCell id="6" value="plain text" style="shape=flexArrow;endArrow=classic;startArrow=classic;html=1;fillColor=#FFFF33;fontSize=14;" parent="1" edge="1">
                    <mxGeometry width="100" height="100" relative="1" as="geometry">
                        <mxPoint x="410" y="320" as="sourcePoint"/>
                        <mxPoint x="550" y="320" as="targetPoint"/>
                        <mxPoint as="offset"/>
                    </mxGeometry>
                </mxCell>
                <mxCell id="19" value="AT commands" style="rounded=0;whiteSpace=wrap;html=1;" parent="1" vertex="1">
                    <mxGeometry x="265" y="310" width="110" height="30" as="geometry"/>
                </mxCell>
                <mxCell id="20" value="" style="curved=1;endArrow=classic;html=1;exitX=1;exitY=0.5;exitDx=0;exitDy=0;entryX=0;entryY=0.5;entryDx=0;entryDy=0;" parent="1" source="3" target="19" edge="1">
                    <mxGeometry width="50" height="50" relative="1" as="geometry">
                        <mxPoint x="210" y="375" as="sourcePoint"/>
                        <mxPoint x="275" y="365" as="targetPoint"/>
                        <Array as="points"/>
                    </mxGeometry>
                </mxCell>
                <mxCell id="16" value="esp-wifi-remote" style="rounded=0;whiteSpace=wrap;html=1;horizontal=0;fillColor=#FFFFCC;fontColor=#000000;" parent="1" vertex="1">
                    <mxGeometry x="220" y="260" width="30" height="130" as="geometry"/>
                </mxCell>
                <mxCell id="21" value="&amp;nbsp;Slave device" style="rounded=0;whiteSpace=wrap;html=1;align=left;verticalAlign=top;fontColor=#000000;fillColor=#CCCCFF;" parent="1" vertex="1">
                    <mxGeometry x="550" y="220" width="290" height="200" as="geometry"/>
                </mxCell>
                <mxCell id="22" value="ESP-AT" style="rounded=0;whiteSpace=wrap;html=1;align=center;verticalAlign=top;fontColor=#000000;fillColor=#9999FF;" parent="1" vertex="1">
                    <mxGeometry x="570" y="250" width="140" height="130" as="geometry"/>
                </mxCell>
                <mxCell id="23" value="AT command&lt;br&gt;handlers" style="rounded=0;whiteSpace=wrap;html=1;" parent="1" vertex="1">
                    <mxGeometry x="585" y="280" width="110" height="60" as="geometry"/>
                </mxCell>
                <mxCell id="26" value="WiFi" style="rounded=0;whiteSpace=wrap;html=1;fillColor=#FF99CC;fontColor=#000000;" parent="1" vertex="1">
                    <mxGeometry x="740" y="270" width="90" height="40" as="geometry"/>
                </mxCell>
                <mxCell id="27" value="TCP/IP" style="rounded=0;whiteSpace=wrap;html=1;" parent="1" vertex="1">
                    <mxGeometry x="740" y="310" width="90" height="40" as="geometry"/>
                </mxCell>
                <mxCell id="28" value="" style="endArrow=classic;html=1;exitX=1;exitY=0.5;exitDx=0;exitDy=0;entryX=0;entryY=0.5;entryDx=0;entryDy=0;" parent="1" source="23" target="27" edge="1">
                    <mxGeometry width="50" height="50" relative="1" as="geometry">
                        <mxPoint x="695" y="345" as="sourcePoint"/>
                        <mxPoint x="730" y="345" as="targetPoint"/>
                    </mxGeometry>
                </mxCell>
                <mxCell id="29" value="" style="endArrow=classic;html=1;exitX=1;exitY=0.5;exitDx=0;exitDy=0;entryX=0;entryY=0.5;entryDx=0;entryDy=0;" parent="1" source="23" target="26" edge="1">
                    <mxGeometry width="50" height="50" relative="1" as="geometry">
                        <mxPoint x="700" y="294.5" as="sourcePoint"/>
                        <mxPoint x="745" y="294.5" as="targetPoint"/>
                    </mxGeometry>
                </mxCell>
                <mxCell id="31" value="Other components" style="rounded=0;whiteSpace=wrap;html=1;" parent="1" vertex="1">
                    <mxGeometry x="740" y="350" width="90" height="40" as="geometry"/>
                </mxCell>
                <mxCell id="32" value="" style="endArrow=classic;html=1;exitX=1;exitY=0.5;exitDx=0;exitDy=0;entryX=0;entryY=0.5;entryDx=0;entryDy=0;dashed=1;" parent="1" source="23" target="31" edge="1">
                    <mxGeometry width="50" height="50" relative="1" as="geometry">
                        <mxPoint x="705" y="320" as="sourcePoint"/>
                        <mxPoint x="750" y="340" as="targetPoint"/>
                    </mxGeometry>
                </mxCell>
            </root>
        </mxGraphModel>
    </diagram>
</mxfile>
